<svg width="28.559326" height="11.205566" viewBox="0 0 28.5593 11.2056" fill="none" xmlns="http://www.w3.org/2000/svg" xmlns:xlink="http://www.w3.org/1999/xlink">
	<desc>
			Created with Pixso.
	</desc>
	<defs/>
	<path id="G Pay" d="M13.32 8.75L12.28 8.75L12.28 0.59L15.06 0.59C15.76 0.59 16.36 0.83 16.85 1.29C17.35 1.76 17.61 2.34 17.61 3.01C17.61 3.71 17.35 4.28 16.85 4.75C16.37 5.21 15.77 5.44 15.06 5.44L13.32 5.44L13.32 8.75ZM13.32 1.6L13.32 4.44L15.08 4.44C15.49 4.44 15.84 4.3 16.12 4.02C16.39 3.74 16.54 3.4 16.54 3.02C16.54 2.64 16.39 2.31 16.12 2.03C15.84 1.74 15.5 1.6 15.08 1.6L13.32 1.6L13.32 1.6Z" fill="#3C4043" fill-opacity="1.000000" fill-rule="nonzero"/>
	<path id="G Pay" d="M20.35 2.98C21.12 2.98 21.73 3.19 22.18 3.6C22.63 4.02 22.85 4.59 22.85 5.31L22.85 8.75L21.85 8.75L21.85 7.97L21.81 7.97C21.38 8.61 20.8 8.93 20.08 8.93C19.46 8.93 18.95 8.75 18.53 8.38C18.12 8.02 17.91 7.56 17.91 7.02C17.91 6.44 18.13 5.98 18.57 5.64C19 5.3 19.59 5.13 20.31 5.13C20.94 5.13 21.45 5.24 21.85 5.47L21.85 5.23C21.85 4.87 21.71 4.56 21.42 4.3C21.13 4.05 20.79 3.92 20.4 3.92C19.82 3.92 19.35 4.17 19.01 4.66L18.09 4.08C18.6 3.35 19.35 2.98 20.35 2.98ZM18.99 7.03C18.99 7.31 19.11 7.54 19.34 7.72C19.57 7.9 19.84 7.99 20.16 7.99C20.6 7.99 20.99 7.83 21.34 7.5C21.68 7.17 21.85 6.79 21.85 6.35C21.53 6.09 21.07 5.96 20.49 5.96C20.06 5.96 19.71 6.06 19.42 6.26C19.13 6.48 18.99 6.73 18.99 7.03Z" fill="#3C4043" fill-opacity="1.000000" fill-rule="nonzero"/>
	<path id="G Pay" d="M28.55 3.16L25.06 11.2L23.98 11.2L25.28 8.39L22.97 3.16L24.11 3.16L25.77 7.17L25.8 7.17L27.41 3.16L28.55 3.16Z" fill="#3C4043" fill-opacity="1.000000" fill-rule="nonzero"/>
	<path id="G Pay" d="M9.15 4.78C9.15 4.44 9.12 4.11 9.07 3.8L4.67 3.8L4.67 5.6L7.2 5.6C7.1 6.2 6.77 6.71 6.26 7.05L6.26 8.22L7.77 8.22C8.65 7.4 9.15 6.2 9.15 4.78Z" fill="#4285F4" fill-opacity="1.000000" fill-rule="nonzero"/>
	<path id="G Pay" d="M6.26 7.05C5.85 7.33 5.3 7.5 4.67 7.5C3.45 7.5 2.42 6.68 2.05 5.57L0.49 5.57L0.49 6.77C1.26 8.3 2.84 9.35 4.67 9.35C5.94 9.35 7 8.93 7.77 8.22L6.26 7.05Z" fill="#34A853" fill-opacity="1.000000" fill-rule="nonzero"/>
	<path id="G Pay" d="M1.9 4.67C1.9 4.36 1.95 4.06 2.05 3.78L2.05 2.57L0.49 2.57C0.17 3.2 0 3.92 0 4.67C0 5.43 0.17 6.14 0.49 6.77L2.05 5.57C1.95 5.28 1.9 4.98 1.9 4.67Z" fill="#FABB05" fill-opacity="1.000000" fill-rule="nonzero"/>
	<path id="G Pay" d="M4.67 1.85C5.36 1.85 5.98 2.08 6.47 2.55L7.8 1.21C6.99 0.46 5.94 0 4.67 0C2.85 0 1.26 1.04 0.49 2.57L2.05 3.78C2.42 2.67 3.45 1.85 4.67 1.85Z" fill="#E94235" fill-opacity="1.000000" fill-rule="nonzero"/>
</svg>
