<svg width="25.381592" height="15.687500" viewBox="0 0 25.3816 15.6875" fill="none" xmlns="http://www.w3.org/2000/svg" xmlns:xlink="http://www.w3.org/1999/xlink">
	<desc>
			Created with Pixso.
	</desc>
	<defs/>
	<path id="Mastercard" d="M16.12 1.67L9.25 1.67L9.25 14.01L16.12 14.01L16.12 1.67Z" fill="#FF5F00" fill-opacity="1.000000" fill-rule="nonzero"/>
	<path id="Mastercard" d="M9.69 7.84C9.69 6.65 9.96 5.48 10.48 4.41C11 3.34 11.75 2.41 12.69 1.67C11.53 0.76 10.14 0.2 8.68 0.04C7.21 -0.12 5.73 0.14 4.41 0.78C3.09 1.43 1.97 2.43 1.19 3.68C0.41 4.92 0 6.37 0 7.84C0 9.31 0.41 10.75 1.19 12C1.97 13.25 3.09 14.25 4.41 14.89C5.73 15.54 7.21 15.79 8.68 15.64C10.14 15.48 11.53 14.91 12.69 14.01C11.75 13.27 11 12.34 10.48 11.27C9.96 10.2 9.69 9.03 9.69 7.84Z" fill="#EB001B" fill-opacity="1.000000" fill-rule="nonzero"/>
	<path id="Mastercard" d="M25.38 7.84C25.38 9.31 24.96 10.75 24.18 12C23.4 13.25 22.28 14.25 20.96 14.89C19.64 15.54 18.16 15.79 16.7 15.64C15.23 15.48 13.84 14.91 12.69 14.01C13.62 13.27 14.37 12.33 14.89 11.27C15.41 10.2 15.68 9.03 15.68 7.84C15.68 6.65 15.41 5.48 14.89 4.41C14.37 3.34 13.62 2.41 12.69 1.67C13.84 0.76 15.23 0.2 16.7 0.04C18.16 -0.12 19.64 0.14 20.96 0.78C22.28 1.43 23.4 2.43 24.18 3.68C24.96 4.92 25.38 6.37 25.38 7.84Z" fill="#F79E1B" fill-opacity="1.000000" fill-rule="nonzero"/>
	<path id="Mastercard" d="M24.63 12.7L24.63 12.45L24.73 12.45L24.73 12.4L24.47 12.4L24.47 12.45L24.57 12.45L24.57 12.7L24.63 12.7ZM25.13 12.7L25.13 12.39L25.05 12.39L24.96 12.6L24.87 12.39L24.79 12.39L24.79 12.7L24.85 12.7L24.85 12.47L24.93 12.67L24.99 12.67L25.08 12.47L25.08 12.7L25.13 12.7Z" fill="#F79E1B" fill-opacity="1.000000" fill-rule="nonzero"/>
</svg>
