<svg width="32.538086" height="10.508301" viewBox="0 0 32.5381 10.5083" fill="none" xmlns="http://www.w3.org/2000/svg" xmlns:xlink="http://www.w3.org/1999/xlink">
	<desc>
			Created with Pixso.
	</desc>
	<defs/>
	<path id="Visa" d="M16.11 0.18L13.93 10.34L11.3 10.34L13.48 0.18L16.11 0.18ZM27.17 6.74L28.55 2.93L29.35 6.74L27.17 6.74ZM30.1 10.34L32.53 10.34L30.41 0.18L28.17 0.18C27.66 0.18 27.24 0.47 27.05 0.93L23.1 10.34L25.86 10.34L26.41 8.83L29.78 8.83L30.1 10.34ZM23.24 7.03C23.25 4.34 19.53 4.2 19.56 3C19.56 2.63 19.91 2.25 20.67 2.15C21.05 2.1 22.09 2.06 23.26 2.6L23.72 0.45C23.09 0.22 22.28 0 21.26 0C18.67 0 16.84 1.38 16.82 3.35C16.81 4.82 18.13 5.63 19.12 6.12C20.15 6.62 20.49 6.94 20.49 7.38C20.48 8.07 19.67 8.37 18.91 8.38C17.59 8.4 16.83 8.02 16.21 7.74L15.74 9.96C16.35 10.25 17.49 10.49 18.66 10.5C21.42 10.5 23.23 9.14 23.24 7.03ZM12.35 0.18L8.09 10.34L5.31 10.34L3.21 2.23C3.09 1.73 2.98 1.55 2.59 1.34C1.96 1 0.91 0.68 0 0.48L0.06 0.18L4.53 0.18C5.1 0.18 5.61 0.56 5.74 1.22L6.85 7.1L9.59 0.18L12.35 0.18Z" fill="#1434CB" fill-opacity="1.000000" fill-rule="nonzero"/>
</svg>
