<svg width="91.000000" height="37.984314" viewBox="0 0 91 37.9843" fill="none" xmlns="http://www.w3.org/2000/svg" xmlns:xlink="http://www.w3.org/1999/xlink">
	<desc>
			Created with Pixso.
	</desc>
	<defs/>
	<path id="Vector" d="M86.33 36.86L72.85 0.02L72.84 0L72.57 0L69.79 7.56L64.74 21.35L64.73 21.33C62.98 19.8 60.5 18.84 57.39 18.48L56.44 18.39L57.38 18.27C62.52 17.35 65.97 14.14 65.97 10.26C65.97 4.94 60.93 1.23 53.71 1.23L38.7 1.23L38.7 1.5L43.06 1.5L43.06 28.97L32.47 0.02L32.46 0L32.19 0L29.42 7.56L18.71 36.76L18.64 36.77C18.46 36.79 18.28 36.81 18.1 36.82C17.83 36.84 17.56 36.86 17.29 36.86L6.47 36.86L27.04 1.5L27.19 1.24L2.04 1.24L2.04 12.17L2.31 12.17C2.35 6.85 5.48 1.5 12.39 1.5L20.72 1.5L0 37.12L27.91 37.12L27.91 26.64L27.65 26.64C27.61 31.29 24.96 35.7 19.19 36.69L19.01 36.72L23.4 24.74L35.7 24.74L40.14 36.86L35.76 36.86L35.76 37.12L52.93 37.12L52.93 36.86L48.54 36.86L48.54 18.58L53.6 18.58C58.76 18.58 61.72 20.87 61.72 24.85L61.72 28.1C61.72 28.45 61.74 28.97 61.77 29.41L61.77 29.43L59.05 36.85L55.49 36.85L55.49 37.12L62.85 37.12L62.85 36.85L59.33 36.85L61.81 30.09C61.82 30.16 61.82 30.2 61.82 30.2L61.89 30.81L61.96 31.21C62.37 33.7 63.33 35.54 64.81 36.66L65.03 36.81C66.15 37.59 67.55 37.98 69.18 37.98C71.35 37.98 72.79 37.44 73.98 36.18L73.83 36.04C72.73 37.04 71.81 37.45 70.65 37.45C68.69 37.45 67.66 35.08 67.66 32.75L67.66 28.21C67.67 27.08 67.49 25.96 67.13 24.89L67.08 24.75L67.08 24.74L76.08 24.74L80.51 36.86L76.14 36.86L76.14 37.12L91 37.12L91 36.86L86.33 36.86ZM23.5 24.48L29.56 7.95L35.61 24.48L23.5 24.48ZM48.54 18.32L48.54 1.5L52.41 1.5C57.57 1.5 60.3 4.55 60.3 10.32C60.3 16.45 58.74 18.32 53.6 18.32L48.54 18.32ZM66.98 24.48L66.95 24.41C66.55 23.44 65.97 22.56 65.23 21.81L64.98 21.56L64.95 21.54L69.93 7.95L75.98 24.48L66.98 24.48Z" fill="#FFFFFF" fill-opacity="1.000000" fill-rule="nonzero"/>
</svg>
