<svg width="26.414795" height="11.205566" viewBox="0 0 26.4148 11.2056" fill="none" xmlns="http://www.w3.org/2000/svg" xmlns:xlink="http://www.w3.org/1999/xlink">
	<desc>
			Created with Pixso.
	</desc>
	<defs/>
	<path id=" Pay" d="M4.99 1.44C5.3 1.05 5.51 0.53 5.45 0C5 0.02 4.44 0.3 4.12 0.68C3.83 1.02 3.58 1.56 3.64 2.07C4.15 2.12 4.67 1.82 4.99 1.44ZM14.65 3.36C14.65 1.74 13.52 0.63 11.91 0.63L8.79 0.63L8.79 8.94L10.08 8.94L10.08 6.1L11.87 6.1C13.5 6.1 14.65 4.98 14.65 3.36ZM11.56 5.02L10.08 5.02L10.08 1.72L11.57 1.72C12.69 1.72 13.33 2.32 13.33 3.37C13.33 4.41 12.69 5.02 11.56 5.02ZM5.45 2.17C5 2.15 4.59 2.31 4.25 2.44C4.04 2.52 3.86 2.59 3.72 2.59C3.57 2.59 3.38 2.52 3.17 2.44C2.89 2.33 2.57 2.2 2.24 2.21C1.47 2.22 0.76 2.65 0.38 3.34C-0.42 4.71 0.16 6.75 0.94 7.87C1.32 8.42 1.77 9.03 2.37 9.01C2.93 8.99 3.16 8.64 3.84 8.64C4.19 8.64 4.42 8.74 4.63 8.83C4.84 8.92 5.03 9.01 5.33 9C5.95 8.99 6.33 8.45 6.71 7.89C7.14 7.26 7.32 6.65 7.33 6.62C7.32 6.61 6.13 6.15 6.12 4.79C6.11 3.72 6.94 3.17 7.08 3.08C7.09 3.08 7.1 3.07 7.1 3.07C6.57 2.28 5.74 2.2 5.45 2.17ZM14.98 7.22C14.98 6.16 15.8 5.51 17.24 5.43L18.9 5.33L18.9 4.86C18.9 4.19 18.44 3.79 17.68 3.79C16.96 3.79 16.51 4.13 16.4 4.67L15.23 4.67C15.29 3.58 16.23 2.77 17.73 2.77C19.19 2.77 20.13 3.55 20.13 4.77L20.13 8.94L18.94 8.94L18.94 7.95L18.91 7.95C18.56 8.62 17.79 9.05 17 9.05C15.81 9.05 14.98 8.31 14.98 7.22ZM21.26 10.16L21.26 11.17C21.35 11.19 21.66 11.2 21.77 11.2C23.02 11.2 23.62 10.73 24.14 9.26L26.41 2.88L25.1 2.88L23.56 7.81L23.54 7.81L22.01 2.88L20.66 2.88L22.85 8.95C22.85 8.95 22.74 9.31 22.74 9.32C22.55 9.94 22.24 10.19 21.66 10.19C21.56 10.19 21.35 10.19 21.26 10.16ZM18.9 6.67L18.9 6.19L17.4 6.29C16.66 6.34 16.24 6.67 16.24 7.18C16.24 7.71 16.68 8.06 17.35 8.06C18.22 8.06 18.9 7.46 18.9 6.67Z" fill="#000008" fill-opacity="1.000000" fill-rule="evenodd"/>
</svg>
