<svg width="11.503845" height="6.503769" viewBox="0 0 11.5038 6.50377" fill="none" xmlns="http://www.w3.org/2000/svg" xmlns:xlink="http://www.w3.org/1999/xlink">
	<desc>
			Created with Pixso.
	</desc>
	<defs/>
	<path id="Vector" d="M11.28 1.28L6.28 6.28C6.21 6.35 6.13 6.4 6.03 6.44C5.94 6.48 5.85 6.5 5.75 6.5C5.65 6.5 5.55 6.48 5.46 6.44C5.37 6.4 5.28 6.35 5.22 6.28L0.22 1.28C0.07 1.14 0 0.95 0 0.75C0 0.55 0.07 0.36 0.22 0.22C0.36 0.07 0.55 0 0.75 0C0.95 0 1.14 0.07 1.28 0.22L5.75 4.69L10.22 0.22C10.36 0.07 10.55 0 10.75 0C10.95 0 11.14 0.07 11.28 0.22C11.42 0.36 11.5 0.55 11.5 0.75C11.5 0.95 11.42 1.14 11.28 1.28L11.28 1.28Z" fill="#000000" fill-opacity="1.000000" fill-rule="nonzero"/>
</svg>
