<svg width="34.552490" height="9.207031" viewBox="0 0 34.5525 9.20703" fill="none" xmlns="http://www.w3.org/2000/svg" xmlns:xlink="http://www.w3.org/1999/xlink">
	<desc>
			Created with Pixso.
	</desc>
	<defs/>
	<path id="Paypal" d="M4.14 0L1.45 0C1.27 0 1.11 0.13 1.08 0.31L0 7.2C-0.02 7.34 0.08 7.46 0.22 7.46L1.5 7.46C1.69 7.46 1.84 7.33 1.87 7.14L2.16 5.29C2.19 5.1 2.35 4.97 2.53 4.97L3.38 4.97C5.15 4.97 6.18 4.11 6.44 2.42C6.56 1.67 6.45 1.09 6.1 0.68C5.72 0.23 5.04 0 4.14 0ZM4.45 2.51C4.3 3.48 3.57 3.48 2.86 3.48L2.45 3.48L2.73 1.68C2.75 1.57 2.85 1.49 2.96 1.49L3.14 1.49C3.63 1.49 4.08 1.49 4.32 1.76C4.46 1.93 4.51 2.17 4.45 2.51ZM12.17 2.48L10.89 2.48C10.78 2.48 10.68 2.56 10.67 2.67L10.61 3.03L10.52 2.9C10.24 2.5 9.62 2.36 9 2.36C7.58 2.36 6.36 3.44 6.13 4.95C6 5.7 6.18 6.42 6.61 6.93C7 7.39 7.56 7.58 8.23 7.58C9.37 7.58 10.01 6.84 10.01 6.84L9.95 7.2C9.93 7.34 10.03 7.46 10.17 7.46L11.33 7.46C11.52 7.46 11.67 7.33 11.7 7.14L12.4 2.74C12.42 2.6 12.31 2.48 12.17 2.48ZM10.38 4.99C10.26 5.72 9.67 6.22 8.93 6.22C8.56 6.22 8.26 6.1 8.06 5.87C7.87 5.64 7.8 5.32 7.86 4.96C7.98 4.24 8.57 3.73 9.31 3.73C9.67 3.73 9.97 3.85 10.16 4.08C10.36 4.31 10.44 4.63 10.38 4.99ZM17.74 2.48L19.03 2.48C19.21 2.48 19.32 2.68 19.21 2.83L14.91 9.04C14.84 9.14 14.73 9.2 14.6 9.2L13.31 9.2C13.13 9.2 13.02 9 13.13 8.85L14.47 6.96L13.05 2.78C13 2.63 13.1 2.48 13.26 2.48L14.53 2.48C14.69 2.48 14.84 2.59 14.89 2.75L15.64 5.27L17.43 2.65C17.5 2.54 17.61 2.48 17.74 2.48Z" fill="#253B80" fill-opacity="1.000000" fill-rule="evenodd"/>
	<path id="Paypal" d="M31.76 7.2L32.86 0.18C32.88 0.08 32.97 0 33.08 0L34.32 0C34.46 0 34.57 0.12 34.54 0.25L33.46 7.14C33.43 7.33 33.27 7.46 33.09 7.46L31.98 7.46C31.84 7.46 31.74 7.34 31.76 7.2ZM23.31 0L20.62 0C20.44 0 20.28 0.13 20.25 0.31L19.17 7.2C19.15 7.34 19.25 7.46 19.39 7.46L20.77 7.46C20.9 7.46 21.01 7.37 21.03 7.24L21.33 5.29C21.36 5.1 21.52 4.97 21.7 4.97L22.55 4.97C24.32 4.97 25.35 4.11 25.61 2.42C25.73 1.67 25.62 1.09 25.27 0.68C24.89 0.23 24.21 0 23.31 0ZM23.62 2.51C23.47 3.48 22.74 3.48 22.03 3.48L21.62 3.48L21.9 1.68C21.92 1.57 22.02 1.49 22.13 1.49L22.31 1.49C22.8 1.49 23.25 1.49 23.49 1.76C23.63 1.93 23.68 2.17 23.62 2.51ZM31.34 2.48L30.06 2.48C29.95 2.48 29.85 2.56 29.84 2.67L29.78 3.03L29.69 2.9C29.41 2.5 28.79 2.36 28.17 2.36C26.75 2.36 25.53 3.44 25.3 4.95C25.17 5.7 25.35 6.42 25.78 6.92C26.17 7.39 26.73 7.58 27.4 7.58C28.54 7.58 29.18 6.84 29.18 6.84L29.12 7.2C29.1 7.34 29.21 7.46 29.34 7.46L30.5 7.46C30.69 7.46 30.84 7.33 30.87 7.14L31.57 2.74C31.59 2.6 31.48 2.48 31.34 2.48ZM29.55 4.99C29.43 5.72 28.84 6.21 28.1 6.21C27.73 6.21 27.43 6.09 27.23 5.87C27.04 5.64 26.97 5.32 27.03 4.96C27.15 4.23 27.74 3.72 28.47 3.72C28.84 3.72 29.14 3.85 29.33 4.08C29.53 4.31 29.61 4.63 29.55 4.99Z" fill="#179BD7" fill-opacity="1.000000" fill-rule="evenodd"/>
</svg>
