<svg width="20.250000" height="20.250000" viewBox="0 0 20.25 20.25" fill="none" xmlns="http://www.w3.org/2000/svg" xmlns:xlink="http://www.w3.org/1999/xlink">
	<desc>
			Created with Pixso.
	</desc>
	<defs/>
	<path id="Vector" d="M10.12 0C8.12 0 6.16 0.59 4.49 1.7C2.83 2.81 1.53 4.4 0.77 6.25C0 8.1 -0.2 10.13 0.19 12.1C0.58 14.06 1.54 15.86 2.96 17.28C4.38 18.7 6.18 19.66 8.14 20.05C10.11 20.44 12.14 20.24 13.99 19.47C15.84 18.71 17.43 17.41 18.54 15.75C19.65 14.08 20.25 12.12 20.25 10.12C20.24 7.44 19.17 4.86 17.28 2.96C15.38 1.07 12.8 0 10.12 0ZM5.58 16.55C6.1 15.83 6.79 15.25 7.57 14.85C8.36 14.45 9.24 14.24 10.12 14.24C11 14.24 11.88 14.45 12.67 14.85C13.45 15.25 14.14 15.83 14.66 16.55C13.33 17.49 11.75 18 10.12 18C8.49 18 6.91 17.49 5.58 16.55ZM7.5 9.37C7.5 8.85 7.65 8.34 7.94 7.91C8.23 7.48 8.64 7.14 9.12 6.94C9.6 6.75 10.12 6.69 10.63 6.8C11.14 6.9 11.61 7.15 11.98 7.51C12.34 7.88 12.59 8.35 12.69 8.86C12.8 9.37 12.74 9.89 12.55 10.37C12.35 10.85 12.01 11.26 11.58 11.55C11.15 11.84 10.64 12 10.12 12C9.42 12 8.76 11.72 8.26 11.23C7.77 10.73 7.5 10.07 7.5 9.37ZM16.31 14.99C15.58 14.06 14.65 13.31 13.59 12.79C14.26 12.11 14.72 11.24 14.91 10.3C15.09 9.35 14.99 8.38 14.62 7.49C14.25 6.6 13.62 5.84 12.82 5.31C12.02 4.78 11.08 4.49 10.12 4.49C9.16 4.49 8.22 4.78 7.42 5.31C6.62 5.84 5.99 6.6 5.62 7.49C5.25 8.38 5.15 9.35 5.33 10.3C5.52 11.24 5.98 12.11 6.65 12.79C5.59 13.31 4.66 14.06 3.93 14.99C3.02 13.83 2.45 12.43 2.29 10.96C2.13 9.49 2.38 8.01 3.03 6.68C3.67 5.35 4.68 4.22 5.93 3.44C7.19 2.65 8.64 2.24 10.12 2.24C11.59 2.24 13.04 2.65 14.3 3.44C15.55 4.22 16.56 5.35 17.2 6.68C17.85 8.01 18.1 9.49 17.94 10.96C17.78 12.43 17.21 13.83 16.3 14.99L16.31 14.99Z" fill="#000000" fill-opacity="1.000000" fill-rule="nonzero"/>
</svg>
