<svg width="18.000000" height="19.500000" viewBox="0 0 18 19.5" fill="none" xmlns="http://www.w3.org/2000/svg" xmlns:xlink="http://www.w3.org/1999/xlink">
	<desc>
			Created with Pixso.
	</desc>
	<defs/>
	<path id="Vector" d="M17.25 3L13.5 3L13.5 2.25C13.5 1.65 13.26 1.08 12.84 0.65C12.41 0.23 11.84 0 11.25 0L6.75 0C6.15 0 5.58 0.23 5.15 0.65C4.73 1.08 4.5 1.65 4.5 2.25L4.5 3L0.75 3C0.55 3 0.36 3.07 0.21 3.21C0.07 3.36 0 3.55 0 3.75C0 3.94 0.07 4.13 0.21 4.28C0.36 4.42 0.55 4.5 0.75 4.5L1.5 4.5L1.5 18C1.5 18.39 1.65 18.77 1.93 19.06C2.22 19.34 2.6 19.5 3 19.5L15 19.5C15.39 19.5 15.77 19.34 16.06 19.06C16.34 18.77 16.5 18.39 16.5 18L16.5 4.5L17.25 4.5C17.44 4.5 17.63 4.42 17.78 4.28C17.92 4.13 18 3.94 18 3.75C18 3.55 17.92 3.36 17.78 3.21C17.63 3.07 17.44 3 17.25 3ZM7.5 14.25C7.5 14.44 7.42 14.63 7.28 14.78C7.13 14.92 6.94 15 6.75 15C6.55 15 6.36 14.92 6.21 14.78C6.07 14.63 6 14.44 6 14.25L6 8.25C6 8.05 6.07 7.86 6.21 7.71C6.36 7.57 6.55 7.5 6.75 7.5C6.94 7.5 7.13 7.57 7.28 7.71C7.42 7.86 7.5 8.05 7.5 8.25L7.5 14.25ZM12 14.25C12 14.44 11.92 14.63 11.78 14.78C11.63 14.92 11.44 15 11.25 15C11.05 15 10.86 14.92 10.71 14.78C10.57 14.63 10.5 14.44 10.5 14.25L10.5 8.25C10.5 8.05 10.57 7.86 10.71 7.71C10.86 7.57 11.05 7.5 11.25 7.5C11.44 7.5 11.63 7.57 11.78 7.71C11.92 7.86 12 8.05 12 8.25L12 14.25ZM12 3L6 3L6 2.25C6 2.05 6.07 1.86 6.21 1.71C6.36 1.57 6.55 1.5 6.75 1.5L11.25 1.5C11.44 1.5 11.63 1.57 11.78 1.71C11.92 1.86 12 2.05 12 2.25L12 3Z" fill="#FF3333" fill-opacity="1.000000" fill-rule="nonzero"/>
</svg>
