<svg width="13.003906" height="9.501892" viewBox="0 0 13.0039 9.50189" fill="none" xmlns="http://www.w3.org/2000/svg" xmlns:xlink="http://www.w3.org/1999/xlink">
	<desc>
			Created with Pixso.
	</desc>
	<defs/>
	<path id="Vector" d="M12.78 1.28L4.78 9.28C4.71 9.35 4.63 9.4 4.53 9.44C4.44 9.48 4.35 9.5 4.25 9.5C4.15 9.5 4.05 9.48 3.96 9.44C3.87 9.4 3.78 9.35 3.71 9.28L0.21 5.78C0.15 5.71 0.09 5.62 0.05 5.53C0.01 5.44 0 5.34 0 5.25C0 5.15 0.01 5.05 0.05 4.96C0.09 4.87 0.15 4.78 0.21 4.71C0.28 4.64 0.37 4.59 0.46 4.55C0.55 4.51 0.65 4.49 0.75 4.49C0.84 4.49 0.94 4.51 1.03 4.55C1.12 4.59 1.21 4.64 1.28 4.71L4.25 7.68L11.72 0.22C11.86 0.07 12.05 0 12.25 0C12.45 0 12.64 0.07 12.78 0.22C12.92 0.36 13 0.55 13 0.75C13 0.95 12.92 1.14 12.78 1.28L12.78 1.28Z" fill="#FFFFFF" fill-opacity="1.000000" fill-rule="nonzero"/>
</svg>
