<svg width="18.751831" height="15.755859" viewBox="0 0 18.7518 15.7559" fill="none" xmlns="http://www.w3.org/2000/svg" xmlns:xlink="http://www.w3.org/1999/xlink">
	<desc>
			Created with Pixso.
	</desc>
	<defs/>
	<path id="Vector" d="M11.67 0.33L18.42 7.08C18.52 7.18 18.6 7.31 18.66 7.44C18.72 7.58 18.75 7.73 18.75 7.87C18.75 8.02 18.72 8.17 18.66 8.31C18.6 8.44 18.52 8.57 18.42 8.67L11.67 15.42C11.45 15.63 11.17 15.75 10.87 15.75C10.57 15.75 10.28 15.63 10.07 15.42C9.86 15.21 9.74 14.92 9.74 14.62C9.74 14.33 9.86 14.04 10.07 13.83L14.9 9L1.12 9C0.82 9 0.54 8.88 0.32 8.67C0.11 8.46 0 8.17 0 7.87C0 7.57 0.11 7.29 0.32 7.08C0.54 6.87 0.82 6.75 1.12 6.75L14.9 6.75L10.07 1.92C9.86 1.71 9.74 1.42 9.74 1.12C9.74 0.82 9.86 0.54 10.07 0.33C10.28 0.11 10.57 0 10.87 0C11.17 0 11.45 0.11 11.67 0.33L11.67 0.33Z" fill="#000000" fill-opacity="1.000000" fill-rule="nonzero"/>
</svg>
