<svg width="18.751831" height="15.755859" viewBox="0 0 18.7518 15.7559" fill="none" xmlns="http://www.w3.org/2000/svg" xmlns:xlink="http://www.w3.org/1999/xlink">
	<desc>
			Created with Pixso.
	</desc>
	<defs/>
	<path id="Vector" d="M7.08 0.33L0.33 7.08C0.22 7.18 0.14 7.31 0.08 7.44C0.02 7.58 0 7.73 0 7.87C0 8.02 0.02 8.17 0.08 8.31C0.14 8.44 0.22 8.57 0.33 8.67L7.08 15.42C7.29 15.63 7.57 15.75 7.87 15.75C8.17 15.75 8.46 15.63 8.67 15.42C8.88 15.21 9 14.92 9 14.62C9 14.33 8.88 14.04 8.67 13.83L3.84 9L17.62 9C17.92 9 18.21 8.88 18.42 8.67C18.63 8.46 18.75 8.17 18.75 7.87C18.75 7.57 18.63 7.29 18.42 7.08C18.21 6.87 17.92 6.75 17.62 6.75L3.84 6.75L8.67 1.92C8.88 1.71 9 1.42 9 1.12C9 0.82 8.88 0.54 8.67 0.33C8.46 0.11 8.17 0 7.87 0C7.57 0 7.29 0.11 7.08 0.33L7.08 0.33Z" fill="#000000" fill-opacity="1.000000" fill-rule="nonzero"/>
</svg>
