<svg width="158.308044" height="23.893547" viewBox="0 0 158.308 23.8935" fill="none" xmlns="http://www.w3.org/2000/svg" xmlns:xlink="http://www.w3.org/1999/xlink">
	<desc>
			Created with Pixso.
	</desc>
	<defs/>
	<path id="SHOP.CO" d="M0 15.65C-0.18 21.46 3.47 23.86 11.2 23.89C18.88 23.92 22.67 21.49 22.67 16.61C22.67 10.48 16.56 10.34 12.11 9.6L9.74 9.2C8.03 8.93 7.63 8.16 7.63 7.52C7.63 6.5 8.64 5.76 11.1 5.76C13.92 5.76 15.18 6.69 15.44 8.18L22.03 8.18C22.16 1.78 17.68 -1.91e-6 11.26 -1.91e-6C4.14 -1.91e-6 0.54 2.72 0.54 7.14C0.54 12.88 5.63 13.38 9.87 14.08L12.75 14.53C14.94 14.85 15.34 15.6 15.34 16.32C15.34 17.36 14.03 18.16 11.2 18.13C8 18.1 6.72 17.17 6.64 15.65L0 15.65ZM49.01 11.94C49.01 19.12 54 23.89 61.7 23.89C69.41 23.89 74.4 19.12 74.4 11.94C74.4 4.77 69.41 -1.91e-6 61.7 -1.91e-6C54 -1.91e-6 49.01 4.77 49.01 11.94ZM107.17 11.94C107.17 19.12 112.21 23.89 119.75 23.89C125.27 23.89 130.82 21.49 131.57 13.86L124.53 13.86C123.91 16.37 122.18 17.52 119.75 17.52C116.82 17.52 114.5 15.33 114.5 11.94C114.5 8.56 116.82 6.37 119.75 6.37C122.18 6.37 123.91 7.52 124.53 9.97L131.57 9.97C130.82 2.4 125.22 -1.91e-6 119.75 -1.91e-6C112.21 -1.91e-6 107.17 4.77 107.17 11.94ZM132.92 11.94C132.92 19.12 137.9 23.89 145.61 23.89C153.32 23.89 158.3 19.12 158.3 11.94C158.3 4.77 153.32 -1.91e-6 145.61 -1.91e-6C137.9 -1.91e-6 132.92 4.77 132.92 11.94ZM47.53 0.74L40.15 0.74L40.15 8.85L31.45 8.85L31.45 0.74L24.07 0.74L24.07 23.14L31.45 23.14L31.45 15.04L40.15 15.04L40.15 23.14L47.53 23.14L47.53 0.74ZM75.88 0.74L75.88 23.14L83.27 23.14L83.27 18.24L88.63 18.24C94.71 18.24 98.33 15.52 98.33 9.49C98.33 3.46 94.71 0.74 88.6 0.74L75.88 0.74ZM67.06 11.94C67.06 15.49 64.64 17.52 61.7 17.52C58.77 17.52 56.34 15.49 56.34 11.94C56.34 8.39 58.77 6.37 61.7 6.37C64.64 6.37 67.06 8.39 67.06 11.94ZM150.97 11.94C150.97 15.49 148.54 17.52 145.61 17.52C142.68 17.52 140.25 15.49 140.25 11.94C140.25 8.39 142.68 6.37 145.61 6.37C148.54 6.37 150.97 8.39 150.97 11.94ZM87.96 12.1L83.27 12.1L83.27 6.88L87.99 6.88C89.75 6.88 90.89 7.76 90.89 9.49C90.89 11.22 89.75 12.1 87.96 12.1ZM98.35 19.94C98.35 21.92 100.03 23.57 102.03 23.57C104.03 23.57 105.71 21.92 105.71 19.94C105.71 17.97 104.03 16.32 102.03 16.32C100.03 16.32 98.35 17.97 98.35 19.94Z" fill="#000000" fill-opacity="1.000000" fill-rule="evenodd"/>
</svg>
