<svg width="18.750000" height="18.750000" viewBox="0 0 18.75 18.75" fill="none" xmlns="http://www.w3.org/2000/svg" xmlns:xlink="http://www.w3.org/1999/xlink">
	<desc>
			Created with Pixso.
	</desc>
	<defs/>
	<path id="Vector" d="M18.75 9.37C18.75 9.67 18.63 9.95 18.42 10.17C18.2 10.38 17.92 10.5 17.62 10.5L10.5 10.5L10.5 17.62C10.5 17.92 10.38 18.2 10.17 18.42C9.95 18.63 9.67 18.75 9.37 18.75C9.07 18.75 8.79 18.63 8.57 18.42C8.36 18.2 8.25 17.92 8.25 17.62L8.25 10.5L1.12 10.5C0.82 10.5 0.54 10.38 0.32 10.17C0.11 9.95 0 9.67 0 9.37C0 9.07 0.11 8.79 0.32 8.57C0.54 8.36 0.82 8.25 1.12 8.25L8.25 8.25L8.25 1.12C8.25 0.82 8.36 0.54 8.57 0.32C8.79 0.11 9.07 0 9.37 0C9.67 0 9.95 0.11 10.17 0.32C10.38 0.54 10.5 0.82 10.5 1.12L10.5 8.25L17.62 8.25C17.92 8.25 18.2 8.36 18.42 8.57C18.63 8.79 18.75 9.07 18.75 9.37Z" fill="#000000" fill-opacity="1.000000" fill-rule="nonzero"/>
</svg>
